<svg width="215" height="160" viewBox="0 0 215 160" fill="none" xmlns="http://www.w3.org/2000/svg">
<path d="M111.633 96.5996C105.274 102.464 93.8047 103.95 85.0504 97.7277C73.7099 89.671 72.4081 75.5938 77.8068 65.8342C84.3786 53.9565 98.1731 50.8417 108.522 56.6208C101.849 56.3406 96.2343 58.3911 91.8972 63.4608C88.2876 67.6754 86.6133 72.7805 87.0345 78.3823C87.8455 89.1672 97.2055 99.7605 111.633 96.5996Z" fill="white"/>
<path d="M27.7839 7.81908C49.7723 8.1703 71.7641 7.93615 93.7525 7.99291C97.8251 8.00356 101.901 7.96453 105.974 8.00001C112.629 8.05677 119.117 9.29136 125.501 11.1681C130.458 12.6262 135.209 14.6377 139.772 17.153C144.064 19.5193 148.137 22.2084 151.955 25.3375C154.872 27.7251 157.64 30.2794 160.219 33.0466C163.721 36.8 166.669 41.0075 169.227 45.5202C172.628 51.5122 175.159 57.8767 176.746 64.6315C177.512 67.8847 177.954 71.2018 178.333 74.5401C178.685 77.6373 178.518 80.7166 178.542 83.8031C178.587 89.2098 177.543 94.471 176.217 99.6648C175.019 104.348 173.307 108.843 171.124 113.121C168.827 117.63 166.195 121.909 163.024 125.836C160.943 128.415 158.792 130.898 156.348 133.102C151.941 137.075 147.249 140.626 142.199 143.663C135.188 147.878 127.67 150.73 119.806 152.522C116.016 153.387 112.135 153.845 108.229 154.107C105.542 154.288 102.858 154.373 100.185 154.295C79.5403 153.685 58.8921 154.476 38.2473 154.448C31.7973 154.437 25.3404 154.114 18.8869 154.235C17.968 154.253 17.6478 154.075 17.6582 153.022C17.7174 147.665 17.519 16.2306 17.3902 9.06076C17.3728 8.07806 17.5782 7.77296 18.5667 7.79424C21.6438 7.8652 24.7138 7.81908 27.7839 7.81908ZM86.9545 148.286C86.9405 149.467 87.306 149.651 88.3224 149.648C96.1578 149.605 103.997 149.598 111.832 149.655C112.949 149.662 113.144 149.3 113.141 148.229C113.106 137.036 113.148 125.839 113.088 114.647C113.082 113.469 113.506 112.954 114.415 112.607C118.397 111.085 121.891 108.704 125 105.749C128.78 102.155 131.68 97.8696 133.709 92.949C136.64 85.8501 137.343 78.4426 135.881 70.9499C134.332 63.028 130.67 56.2271 124.784 50.7885C121.613 47.8581 118.146 45.4741 114.22 43.8918C113.169 43.4696 113.116 42.9197 113.116 42.0293C113.13 33.5149 113.106 25.0005 113.148 16.486C113.151 15.4643 112.897 15.2479 111.943 15.255C104.108 15.2976 96.2691 15.3118 88.4338 15.2373C87.2016 15.2266 86.9545 15.5672 86.9649 16.7947C87.0171 25.5503 86.9962 34.3025 86.9858 43.0581C86.9858 43.6151 87.2051 44.2111 86.394 44.5801C80.9187 47.067 76.4215 50.8381 72.7701 55.7907C68.621 61.4173 66.2679 67.7889 65.61 74.7672C65.2376 78.7441 65.443 82.7814 66.3584 86.737C67.8621 93.2364 70.7686 98.9268 75.1475 103.801C78.2489 107.253 81.862 109.967 85.9903 111.911C86.7491 112.27 87.0206 112.678 87.0136 113.557C86.9719 119.344 86.9927 125.133 86.9927 130.923C86.9858 136.71 87.0241 142.499 86.9545 148.286Z" fill="white"/>
</svg>
